<?xml version="1.0" standalone="no"?>
<!DOCTYPE svg PUBLIC "-//W3C//DTD SVG 20010904//EN"
 "http://www.w3.org/TR/2001/REC-SVG-20010904/DTD/svg10.dtd">
<svg version="1.0" xmlns="http://www.w3.org/2000/svg"
 width="1024.000000pt" height="1024.000000pt" viewBox="0 0 1024.000000 1024.000000"
 preserveAspectRatio="xMidYMid meet">
<metadata>
Created by potrace 1.11, written by Peter Selinger 2001-2013
</metadata>
<g transform="translate(0.000000,1024.000000) scale(0.100000,-0.100000)"
fill="#000000" stroke="none">
<path d="M0 5120 l0 -5120 5120 0 5120 0 0 5120 0 5120 -5120 0 -5120 0 0
-5120z m5424 2820 c157 -18 323 -48 431 -79 17 -4 50 -14 75 -21 25 -7 63 -19
85 -27 22 -8 73 -26 113 -39 120 -41 324 -138 447 -214 39 -23 79 -48 90 -54
55 -31 209 -144 304 -224 175 -146 354 -344 483 -532 28 -41 55 -76 60 -78 4
-2 8 -8 8 -14 0 -5 8 -22 19 -36 43 -61 201 -366 201 -389 0 -5 9 -28 21 -52
11 -23 38 -95 59 -159 222 -670 197 -1373 -72 -2007 -58 -135 -137 -290 -179
-352 -16 -23 -29 -44 -29 -48 0 -10 -108 -166 -163 -235 -7 -8 -28 -35 -47
-60 -44 -55 -42 -54 -115 -130 -59 -63 -101 -87 -210 -125 -195 -67 -467 -95
-685 -70 -267 30 -360 51 -492 106 -175 74 -340 199 -573 433 -185 186 -316
339 -491 576 -99 133 -284 404 -284 415 0 3 -18 33 -40 65 l-40 59 31 53 c30
50 39 66 89 153 55 96 64 113 85 150 12 22 35 63 50 90 83 148 130 237 268
515 154 310 210 428 257 545 4 11 17 40 28 65 33 75 34 87 15 95 -33 14 -562
18 -693 6 -69 -6 -177 -16 -240 -22 -63 -5 -140 -14 -170 -19 -30 -5 -86 -14
-125 -20 -38 -7 -104 -19 -145 -27 -41 -9 -95 -19 -120 -24 -200 -36 -596
-174 -785 -273 -142 -75 -329 -191 -371 -230 -7 -6 -31 -27 -55 -46 -24 -19
-78 -67 -120 -107 -67 -65 -101 -90 -85 -64 3 5 10 37 16 72 11 71 44 233 60
292 22 82 28 103 33 117 3 8 20 56 38 105 90 254 264 571 423 771 94 119 505
329 801 409 134 37 175 46 285 66 354 63 803 63 1175 0 91 -15 230 -42 294
-56 l34 -8 -6 84 c-12 181 -80 340 -193 453 -41 41 -176 136 -194 136 -5 0
-10 5 -10 10 0 13 236 13 354 0z m-2433 -3495 c36 -71 75 -147 87 -167 21 -36
40 -69 81 -140 46 -82 183 -294 259 -403 247 -351 533 -654 768 -812 200 -135
550 -298 864 -403 160 -54 447 -130 545 -145 83 -13 146 -27 142 -31 -2 -3
-55 -13 -118 -23 -442 -73 -904 -45 -1314 80 -329 101 -730 310 -855 445 -131
141 -340 420 -500 664 -27 40 -75 118 -91 148 -42 72 -57 99 -82 142 -53 90
-140 279 -173 375 -57 164 -70 228 -56 260 23 50 138 103 287 133 87 17 83 19
156 -123z"/>
</g>
</svg>
